<svg xmlns="http://www.w3.org/2000/svg" viewBox="0 0 64 64" width="64" height="64">
  <!-- Realistic veterinary stethoscope with paw print -->
  
  <!-- Background circle -->
  <circle cx="32" cy="32" r="30" fill="#2D5016" opacity="0.1"/>
  
  <!-- Stethoscope - realistic proportions -->
  <g transform="translate(32, 28)">
    
    <!-- Headset/Earpieces -->
    <path d="M -16,-8 Q -14,-10 -12,-8" fill="none" stroke="#2D5016" stroke-width="2" stroke-linecap="round"/>
    <path d="M 16,-8 Q 14,-10 12,-8" fill="none" stroke="#2D5016" stroke-width="2" stroke-linecap="round"/>
    
    <!-- Ear tips (metal pieces) -->
    <ellipse cx="-12" cy="-8" rx="2" ry="3" fill="#7F8C8D"/>
    <ellipse cx="12" cy="-8" rx="2" ry="3" fill="#7F8C8D"/>
    
    <!-- Tubing from earpieces - realistic curved paths -->
    <path d="M -12,-8 Q -10,-4 -8,0 Q -6,4 -4,8" 
          fill="none" 
          stroke="#2D5016" 
          stroke-width="2.5" 
          stroke-linecap="round"/>
    
    <path d="M 12,-8 Q 10,-4 8,0 Q 6,4 4,8" 
          fill="none" 
          stroke="#2D5016" 
          stroke-width="2.5" 
          stroke-linecap="round"/>
    
    <!-- Y-junction where tubes meet -->
    <ellipse cx="0" cy="12" rx="2.5" ry="2" fill="#2D5016"/>
    
    <!-- Single tube going down to chest piece -->
    <line x1="0" y1="14" x2="0" y2="22" 
          stroke="#2D5016" 
          stroke-width="2.5" 
          stroke-linecap="round"/>
    
    <!-- Chest piece (diaphragm) - realistic detailed design -->
    <g transform="translate(0, 26)">
      <!-- Outer rim (metal) -->
      <circle cx="0" cy="0" r="7" fill="#7F8C8D"/>
      <!-- Inner rim -->
      <circle cx="0" cy="0" r="6" fill="#34495E"/>
      <!-- Diaphragm surface -->
      <circle cx="0" cy="0" r="5" fill="#BDC3C7"/>
      <!-- Center detail -->
      <circle cx="0" cy="0" r="1.5" fill="#7F8C8D"/>
    </g>
    
    <!-- Paw print (indicates veterinary, not human medicine) -->
    <g transform="translate(14, 18)" opacity="0.7">
      <!-- Main pad -->
      <ellipse cx="0" cy="2" rx="3" ry="4" fill="#E67E22"/>
      <!-- Toe pads -->
      <circle cx="-2" cy="-2" r="1.5" fill="#E67E22"/>
      <circle cx="0" cy="-3" r="1.5" fill="#E67E22"/>
      <circle cx="2" cy="-2" r="1.5" fill="#E67E22"/>
      <circle cx="3.5" cy="0" r="1.2" fill="#E67E22"/>
    </g>
    
  </g>
</svg>
